<svg id="Layer_1" data-name="Layer 1" xmlns="http://www.w3.org/2000/svg" viewBox="0 0 134.07 56.16"><path d="M123.1,5.8a15.2,15.2,0,0,1,4.5-4.6c1-.7,1.6-.7,2.2.6.8,1.9,1.5,3.9.9,6a2.29,2.29,0,0,0,.4,2.1c.6.8,1.1,1.6,1.6,2.3a6.27,6.27,0,0,1,.9,6.2,5.43,5.43,0,0,0-.2,3.1,7.58,7.58,0,0,1,0,3,3.75,3.75,0,0,1-2.7,3.2,5.21,5.21,0,0,0-3.2,2,1.05,1.05,0,0,1-.9.5c-1.2.2-4.2-2.5-4.2-3.7v-.6c.1-3.6-.1-3.9-3.4-5.4a4.39,4.39,0,0,1-1.8-1.2c-.6-.8-1.4-.7-2.3-.4s-1.4.9-1.3,1.9a44.14,44.14,0,0,1,.3,7.3,1.88,1.88,0,0,0,.2.8c3.1,4.5,4.3,9.8,5.8,14.9,1.2,3.9,3.4,6,7.4,6.3a12.5,12.5,0,0,1,1.9.3,4.16,4.16,0,0,1,3.4,3.2c.7,2.1.3,2.6-1.8,2.6h-6.5a3.24,3.24,0,0,1-2.3-.8,11.71,11.71,0,0,0-3.4-2,7.26,7.26,0,0,1-3.4-2.6,28.61,28.61,0,0,0-4-4.5c-2.8-2.9-5.8-5.7-8.4-8.7A11.38,11.38,0,0,1,99.6,30c0-.9-.2-1.3-1.2-.9a1.93,1.93,0,0,1-1,.3c-2.8,0-4.2,1.7-5.2,4.2-.9,2.1-2.1,4.1-3.2,6.2A10.39,10.39,0,0,0,88,44c0,2.4.6,3.2,2.8,4,1.4.5,2.7,1,3.4,2.4.8,1.6.6,2-1.1,2.1H86.3a1.88,1.88,0,0,1-1.9-1.1l-1.8-3a6.05,6.05,0,0,1-.7-5.4,11.86,11.86,0,0,0,.1-5.3,8.42,8.42,0,0,1,1.7-7c.6-.7.6-1-.4-1.2a50.06,50.06,0,0,1-11.8-4.1.1.1,0,0,1-.1-.1c-3.2-1.2-3.8-1-4.7,2.3-.8,2.8-1.6,5.6-2.2,8.5-.7,3.2.1,6.2,1.1,9.2.4,1.2,1.6,1.1,2.5,1.4,2,.6,3.7,1.4,4.5,3.5.7,1.6.6,1.8-1.1,1.8s-3.4-.1-5.2,0a6.64,6.64,0,0,1-4.2-1.4c-4.8-3.2-6.2-8.1-6.6-13.4-.2-3.3-2-5.9-4.1-8.4-.4-.5-.8-.7-1.4-.3a44.32,44.32,0,0,1-6.7,3,26.71,26.71,0,0,0-12.2,8.8,10.63,10.63,0,0,0-2.2,5.1c-.3,1.8.2,2.6,2,3.1s2.7,1.5,2.9,3.4c.1.8-.2,1.2-1,1.2H24.7a1.65,1.65,0,0,1-1.3-.8,8.56,8.56,0,0,1-1.9-5.5,50.6,50.6,0,0,1,.9-10.3,6.3,6.3,0,0,1,3.4-4.8c5.9-2.8,9-8.1,11.8-13.6.6-1.1.1-1.3-.9-1.2A16.47,16.47,0,0,0,29,20.1a70.62,70.62,0,0,0-8.3,7.1,16.67,16.67,0,0,1-10.3,4.9C3.1,32.5-.3,28.4,0,21.8a9.69,9.69,0,0,1,2.4-6.1,4.25,4.25,0,0,1,4.5-1.5c1.5.4,1.9,1.2,1.3,2.7-.3.6-.7,1.1-1,1.7a7.5,7.5,0,0,0-1,2c-1.1,3,.4,5.1,3.5,5.4,3.3.3,6-1.1,8.5-3.1a44.94,44.94,0,0,0,8-8.3A20.79,20.79,0,0,1,40.6,6.5c2.3-.3,4.3-1.3,6.5-1.9A41.51,41.51,0,0,1,59.8,2.8a13,13,0,0,0,5.8-1.1c4.9-2,10-2,15.1-1,4,.8,8,1.8,11.9,2.8a16.58,16.58,0,0,0,7-.2,67.79,67.79,0,0,1,13.4-2A18.16,18.16,0,0,1,121.6,3C123.6,3.9,123.6,3.9,123.1,5.8Z" transform="translate(0.02 -0.04)"/></svg>